{"accessors": [{"bufferView": 2, "componentType": 5126, "count": 25477, "max": [122.27461242675781, 59.98675537109375, 13.825489044189453], "min": [-53.30204772949219, -59.986751556396484, -28.515140533447266], "type": "VEC3"}, {"bufferView": 2, "byteOffset": 305724, "componentType": 5126, "count": 25477, "max": [1.0, 1.0, 1.0], "min": [-1.0, -1.0, -1.0], "type": "VEC3"}, {"bufferView": 3, "componentType": 5126, "count": 25477, "max": [1.0, 1.0, 1.0, 1.0], "min": [-1.0, -1.0, -1.0, -1.0], "type": "VEC4"}, {"bufferView": 1, "componentType": 5126, "count": 25477, "max": [0.9038090109825134, 0.9990479946136475], "min": [0.0019049999536946416, 0.0019529999699443579], "type": "VEC2"}, {"bufferView": 1, "byteOffset": 203816, "componentType": 5126, "count": 25477, "max": [0.9038090109825134, 0.9990479946136475], "min": [0.0019049999536946416, 0.0019529999699443579], "type": "VEC2"}, {"bufferView": 1, "byteOffset": 407632, "componentType": 5126, "count": 25477, "max": [0.9038090109825134, 0.9990479946136475], "min": [0.0019049999536946416, 0.0019529999699443579], "type": "VEC2"}, {"bufferView": 1, "byteOffset": 611448, "componentType": 5126, "count": 25477, "max": [0.9038090109825134, 0.9990479946136475], "min": [0.0019049999536946416, 0.0019529999699443579], "type": "VEC2"}, {"bufferView": 0, "componentType": 5125, "count": 72507, "type": "SCALAR"}, {"bufferView": 2, "byteOffset": 611448, "componentType": 5126, "count": 374, "max": [83.67471313476562, 4.415232181549072, -7.597774028778076], "min": [47.48587417602539, -4.415224075317383, -16.18855857849121], "type": "VEC3"}, {"bufferView": 2, "byteOffset": 615936, "componentType": 5126, "count": 374, "max": [0.5157646536827087, 0.9978083968162537, 0.26332494616508484], "min": [-0.20948386192321777, -0.9978085160255432, -0.9996550679206848], "type": "VEC3"}, {"bufferView": 1, "byteOffset": 815264, "componentType": 5126, "count": 374, "max": [-0.02831999957561493, -0.023375999182462692], "min": [-0.9848629832267761, -0.9741209745407104], "type": "VEC2"}, {"bufferView": 0, "byteOffset": 290028, "componentType": 5125, "count": 1758, "type": "SCALAR"}, {"bufferView": 2, "byteOffset": 620424, "componentType": 5126, "count": 8570, "max": [83.75018310546875, 4.536078929901123, -2.1393749713897705], "min": [47.357696533203125, -4.571299076080322, -16.05691909790039], "type": "VEC3"}, {"bufferView": 2, "byteOffset": 723264, "componentType": 5126, "count": 8570, "max": [1.0, 1.0, 1.0], "min": [-1.0, -1.0, -1.0], "type": "VEC3"}, {"bufferView": 3, "byteOffset": 407632, "componentType": 5126, "count": 8570, "max": [1.0, 1.0, 1.0, 1.0], "min": [-1.0, -1.0, -1.0, -1.0], "type": "VEC4"}, {"bufferView": 1, "byteOffset": 818256, "componentType": 5126, "count": 8570, "max": [0.9990230202674866, 0.9966850280761719], "min": [0.6479489803314209, 0.33398398756980896], "type": "VEC2"}, {"bufferView": 1, "byteOffset": 886816, "componentType": 5126, "count": 8570, "max": [0.9990230202674866, 0.9966850280761719], "min": [0.6479489803314209, 0.33398398756980896], "type": "VEC2"}, {"bufferView": 1, "byteOffset": 955376, "componentType": 5126, "count": 8570, "max": [0.9990230202674866, 0.9966850280761719], "min": [0.6479489803314209, 0.33398398756980896], "type": "VEC2"}, {"bufferView": 1, "byteOffset": 1023936, "componentType": 5126, "count": 8570, "max": [0.9990230202674866, 0.9966850280761719], "min": [0.6479489803314209, 0.33398398756980896], "type": "VEC2"}, {"bufferView": 0, "byteOffset": 297060, "componentType": 5125, "count": 16725, "type": "SCALAR"}, {"bufferView": 2, "byteOffset": 826104, "componentType": 5126, "count": 97, "max": [87.75411987304688, 2.541616916656494, -6.7551069259643555], "min": [-39.6505126953125, -19.631999969482422, -23.444297790527344], "type": "VEC3"}, {"bufferView": 2, "byteOffset": 827268, "componentType": 5126, "count": 97, "max": [0.9989811778068542, 0.9951417446136475, 0.9131528735160828], "min": [-0.9980441331863403, -0.9926382899284363, -0.9869344830513], "type": "VEC3"}, {"bufferView": 1, "byteOffset": 1092496, "componentType": 5126, "count": 97, "max": [-0.026778999716043472, -0.5483400225639343], "min": [-0.3493649959564209, -0.9731450080871582], "type": "VEC2"}, {"bufferView": 0, "byteOffset": 363960, "componentType": 5125, "count": 327, "type": "SCALAR"}, {"bufferView": 2, "byteOffset": 828432, "componentType": 5126, "count": 438, "max": [63.598453521728516, 16.906478881835938, 4.040980815887451], "min": [-3.754823923110962, -16.906478881835938, -0.5519570112228394], "type": "VEC3"}, {"bufferView": 2, "byteOffset": 833688, "componentType": 5126, "count": 438, "max": [0.3293251395225525, 0.9991066455841064, 1.0], "min": [-0.23031795024871826, -0.9991064071655273, -0.07056719064712524], "type": "VEC3"}, {"bufferView": 3, "byteOffset": 544752, "componentType": 5126, "count": 438, "max": [0.2881462275981903, 1.0, 1.0, 1.0], "min": [-0.3021143674850464, -0.4461149573326111, -1.0, 1.0], "type": "VEC4"}, {"bufferView": 1, "byteOffset": 1093272, "componentType": 5126, "count": 438, "max": [0.6904299855232239, 0.8822630047798157], "min": [0.08862300217151642, 0.4506840109825134], "type": "VEC2"}, {"bufferView": 1, "byteOffset": 1096776, "componentType": 5126, "count": 438, "max": [0.6904299855232239, 0.8822630047798157], "min": [0.08862300217151642, 0.4506840109825134], "type": "VEC2"}, {"bufferView": 1, "byteOffset": 1100280, "componentType": 5126, "count": 438, "max": [0.6904299855232239, 0.8822630047798157], "min": [0.08862300217151642, 0.4506840109825134], "type": "VEC2"}, {"bufferView": 1, "byteOffset": 1103784, "componentType": 5126, "count": 438, "max": [0.6904299855232239, 0.8822630047798157], "min": [0.08862300217151642, 0.4506840109825134], "type": "VEC2"}, {"bufferView": 0, "byteOffset": 365268, "componentType": 5125, "count": 1785, "type": "SCALAR"}, {"bufferView": 2, "byteOffset": 838944, "componentType": 5126, "count": 51, "max": [52.19930648803711, 13.335442543029785, 10.491303443908691], "min": [27.638427734375, -13.335448265075684, 6.37136697769165], "type": "VEC3"}, {"bufferView": 2, "byteOffset": 839556, "componentType": 5126, "count": 51, "max": [1.0, 0.2449236661195755, 0.2449219822883606], "min": [0.9695417284965515, -0.24492399394512177, -0.2449255734682083], "type": "VEC3"}, {"bufferView": 1, "byteOffset": 1107288, "componentType": 5126, "count": 51, "max": [-0.9199219942092896, -0.04400600120425224], "min": [-0.9516599774360657, -0.11035200208425522], "type": "VEC2"}, {"bufferView": 0, "byteOffset": 372408, "componentType": 5125, "count": 144, "type": "SCALAR"}, {"bufferView": 2, "byteOffset": 840168, "componentType": 5126, "count": 13807, "max": [63.97306823730469, 18.947677612304688, 21.439369201660156], "min": [-4.888268947601318, -18.947681427001953, -2.9612491130828857], "type": "VEC3"}, {"bufferView": 2, "byteOffset": 1005852, "componentType": 5126, "count": 13807, "max": [1.0, 1.0, 1.0], "min": [-1.0, -1.0, -0.9999948740005493], "type": "VEC3"}, {"bufferView": 3, "byteOffset": 551760, "componentType": 5126, "count": 13807, "max": [1.0, 1.0, 1.0, 1.0], "min": [-1.0, -1.0, -1.0, -1.0], "type": "VEC4"}, {"bufferView": 1, "byteOffset": 1107696, "componentType": 5126, "count": 13807, "max": [0.9980469942092896, 0.8822630047798157], "min": [0.08862300217151642, 0.12548799812793732], "type": "VEC2"}, {"bufferView": 1, "byteOffset": 1218152, "componentType": 5126, "count": 13807, "max": [0.9980469942092896, 0.8822630047798157], "min": [0.08862300217151642, 0.12548799812793732], "type": "VEC2"}, {"bufferView": 1, "byteOffset": 1328608, "componentType": 5126, "count": 13807, "max": [0.9980469942092896, 0.8822630047798157], "min": [0.08862300217151642, 0.12548799812793732], "type": "VEC2"}, {"bufferView": 1, "byteOffset": 1439064, "componentType": 5126, "count": 13807, "max": [0.9980469942092896, 0.8822630047798157], "min": [0.08862300217151642, 0.12548799812793732], "type": "VEC2"}, {"bufferView": 0, "byteOffset": 372984, "componentType": 5125, "count": 31632, "type": "SCALAR"}, {"bufferView": 2, "byteOffset": 1171536, "componentType": 5126, "count": 1788, "max": [25.564300537109375, 39.895755767822266, 3.198673963546753], "min": [-10.485838890075684, -39.895751953125, -0.556020975112915], "type": "VEC3"}, {"bufferView": 2, "byteOffset": 1192992, "componentType": 5126, "count": 1788, "max": [0.9998481869697571, 1.0, 0.9998477697372437], "min": [-0.999847948551178, -1.0, -0.9999322891235352], "type": "VEC3"}, {"bufferView": 3, "byteOffset": 772672, "componentType": 5126, "count": 1788, "max": [1.0, 0.9523618221282959, 0.9521560668945312, 1.0], "min": [-0.999927282333374, -1.0, -0.9999849200248718, -1.0], "type": "VEC4"}, {"bufferView": 1, "byteOffset": 1549520, "componentType": 5126, "count": 1788, "max": [0.9296879768371582, 0.10839799791574478], "min": [0.7177730202674866, 0.0019529999699443579], "type": "VEC2"}, {"bufferView": 1, "byteOffset": 1563824, "componentType": 5126, "count": 1788, "max": [0.9296879768371582, 0.10839799791574478], "min": [0.7177730202674866, 0.0019529999699443579], "type": "VEC2"}, {"bufferView": 1, "byteOffset": 1578128, "componentType": 5126, "count": 1788, "max": [0.9296879768371582, 0.10839799791574478], "min": [0.7177730202674866, 0.0019529999699443579], "type": "VEC2"}, {"bufferView": 1, "byteOffset": 1592432, "componentType": 5126, "count": 1788, "max": [0.9296879768371582, 0.10839799791574478], "min": [0.7177730202674866, 0.0019529999699443579], "type": "VEC2"}, {"bufferView": 0, "byteOffset": 499512, "componentType": 5125, "count": 3672, "type": "SCALAR"}], "asset": {"extras": {"author": "bohmerang (https://sketchfab.com/bohmerang)", "license": "CC-BY-NC-SA-4.0 (http://creativecommons.org/licenses/by-nc-sa/4.0/)", "source": "https://sketchfab.com/3d-models/mig-35-fighter-jet-free-1dcea306e8a14ed4ab4d11a819cb6676", "title": "MiG-35 - Fighter Jet - Free"}, "generator": "Sketchfab-16.28.0", "version": "2.0"}, "bufferViews": [{"buffer": 0, "byteLength": 514200, "name": "floatBufferViews", "target": 34963}, {"buffer": 0, "byteLength": 1606736, "byteOffset": 514200, "byteStride": 8, "name": "floatBufferViews", "target": 34962}, {"buffer": 0, "byteLength": 1214448, "byteOffset": 2120936, "byteStride": 12, "name": "floatBufferViews", "target": 34962}, {"buffer": 0, "byteLength": 801280, "byteOffset": 3335384, "byteStride": 16, "name": "floatBufferViews", "target": 34962}], "buffers": [{"byteLength": 4136664, "uri": "scene.bin"}], "materials": [{"doubleSided": true, "name": "MiG-35-Airframe", "pbrMetallicRoughness": {}}, {"alphaMode": "BLEND", "doubleSided": true, "name": "Glass", "pbrMetallicRoughness": {"baseColorFactor": [1.0, 0.8983014452515788, 0.7052530431505092, 0.40051497269114605], "roughnessFactor": 0.0}}, {"doubleSided": true, "emissiveFactor": [1.0, 1.0, 1.0], "name": "MiG-35-LandingLights", "pbrMetallicRoughness": {"baseColorFactor": [0.8, 0.8, 0.8, 1.0], "metallicFactor": 0.0, "roughnessFactor": 0.0}}], "meshes": [{"name": "Object_0", "primitives": [{"attributes": {"NORMAL": 1, "POSITION": 0, "TANGENT": 2, "TEXCOORD_0": 3, "TEXCOORD_1": 4, "TEXCOORD_2": 5, "TEXCOORD_3": 6}, "indices": 7, "material": 0, "mode": 4}]}, {"name": "Object_1", "primitives": [{"attributes": {"NORMAL": 9, "POSITION": 8, "TEXCOORD_0": 10}, "indices": 11, "material": 1, "mode": 4}]}, {"name": "Object_2", "primitives": [{"attributes": {"NORMAL": 13, "POSITION": 12, "TANGENT": 14, "TEXCOORD_0": 15, "TEXCOORD_1": 16, "TEXCOORD_2": 17, "TEXCOORD_3": 18}, "indices": 19, "material": 0, "mode": 4}]}, {"name": "Object_3", "primitives": [{"attributes": {"NORMAL": 21, "POSITION": 20, "TEXCOORD_0": 22}, "indices": 23, "material": 1, "mode": 4}]}, {"name": "Object_4", "primitives": [{"attributes": {"NORMAL": 25, "POSITION": 24, "TANGENT": 26, "TEXCOORD_0": 27, "TEXCOORD_1": 28, "TEXCOORD_2": 29, "TEXCOORD_3": 30}, "indices": 31, "material": 0, "mode": 4}]}, {"name": "Object_5", "primitives": [{"attributes": {"NORMAL": 33, "POSITION": 32, "TEXCOORD_0": 34}, "indices": 35, "material": 2, "mode": 4}]}, {"name": "Object_6", "primitives": [{"attributes": {"NORMAL": 37, "POSITION": 36, "TANGENT": 38, "TEXCOORD_0": 39, "TEXCOORD_1": 40, "TEXCOORD_2": 41, "TEXCOORD_3": 42}, "indices": 43, "material": 0, "mode": 4}]}, {"name": "Object_7", "primitives": [{"attributes": {"NORMAL": 45, "POSITION": 44, "TANGENT": 46, "TEXCOORD_0": 47, "TEXCOORD_1": 48, "TEXCOORD_2": 49, "TEXCOORD_3": 50}, "indices": 51, "material": 0, "mode": 4}]}], "nodes": [{"children": [1], "matrix": [1.0, 0.0, 0.0, 0.0, 0.0, 2.220446049250313e-16, -1.0, 0.0, 0.0, 1.0, 2.220446049250313e-16, 0.0, 0.0, 0.0, 0.0, 1.0], "name": "Sketchfab_model"}, {"children": [2], "name": "root"}, {"children": [3, 5, 7, 9, 11, 13, 15, 17], "matrix": [1.0, 0.0, 0.0, 0.0, 0.0, 2.220446049250313e-16, 1.0, 0.0, 0.0, -1.0, 2.220446049250313e-16, 0.0, 0.0, 0.0, 0.0, 1.0], "name": "GLTF_SceneRootNode"}, {"children": [4], "matrix": [1.0, 0.0, 0.0, 0.0, 0.0, 8.429369480200677e-08, 0.9999999999999966, 0.0, 0.0, -0.9999999999999966, 8.429369480200677e-08, 0.0, 0.0, 0.0, 0.0, 1.0], "name": "MiG-35-Airframe_0"}, {"mesh": 0, "name": "Object_4"}, {"children": [6], "matrix": [1.0, 0.0, 0.0, 0.0, 0.0, 8.429369480200677e-08, 0.9999999999999966, 0.0, 0.0, -0.9999999999999966, 8.429369480200677e-08, 0.0, 0.0, 0.0, 0.0, 1.0], "name": "MiG-35-Canopy_1"}, {"mesh": 1, "name": "Object_6"}, {"children": [8], "matrix": [1.0, 0.0, 0.0, 0.0, 0.0, 8.429369480200677e-08, 0.9999999999999966, 0.0, 0.0, -0.9999999999999966, 8.429369480200677e-08, 0.0, 0.0, 0.0, 0.0, 1.0], "name": "MiG-35-Cockpit_2"}, {"mesh": 2, "name": "Object_8"}, {"children": [10], "matrix": [1.0, 0.0, 0.0, 0.0, 0.0, 8.429369480200677e-08, 0.9999999999999966, 0.0, 0.0, -0.9999999999999966, 8.429369480200677e-08, 0.0, 0.0, 0.0, 0.0, 1.0], "name": "MiG-35-InstrGlass_3"}, {"mesh": 3, "name": "Object_10"}, {"children": [12], "matrix": [1.0, 0.0, 0.0, 0.0, 0.0, 8.429369480200677e-08, 0.9999999999999966, 0.0, 0.0, -0.9999999999999966, 8.429369480200677e-08, 0.0, 0.0, 0.0, 0.0, 1.0], "name": "MiG-35-LandingClosed_4"}, {"mesh": 4, "name": "Object_12"}, {"children": [14], "matrix": [1.0, 0.0, 0.0, 0.0, 0.0, 8.429369480200677e-08, 0.9999999999999966, 0.0, 0.0, -0.9999999999999966, 8.429369480200677e-08, 0.0, 0.0, 0.0, 0.0, 1.0], "name": "MiG-35-LandingLights_5"}, {"mesh": 5, "name": "Object_14"}, {"children": [16], "matrix": [1.0, 0.0, 0.0, 0.0, 0.0, 8.429369480200677e-08, 0.9999999999999966, 0.0, 0.0, -0.9999999999999966, 8.429369480200677e-08, 0.0, 0.0, 0.0, 0.0, 1.0], "name": "MiG-35-LandingOpen_6"}, {"mesh": 6, "name": "Object_16"}, {"children": [18], "matrix": [1.0, 0.0, 0.0, 0.0, 0.0, 8.429369480200677e-08, 0.9999999999999966, 0.0, 0.0, -0.9999999999999966, 8.429369480200677e-08, 0.0, 0.0, 0.0, 0.0, 1.0], "name": "MiG-35-Rails_7"}, {"mesh": 7, "name": "Object_18"}], "samplers": [{"magFilter": 9729, "minFilter": 9987, "wrapS": 10497, "wrapT": 10497}], "scene": 0, "scenes": [{"name": "Sketchfab_Scene", "nodes": [0]}]}